<svg xmlns="http://www.w3.org/2000/svg">
  <symbol viewBox="0 0 100 100" id="fi-address-book">
    <title>fi-address-book</title>
    <path d="M81.195,31.517c1.128,0,2.042-0.897,2.042-1.996V23.61c0-1.102-0.914-2-2.042-2h-4.586v-1.603
	c0-1.771-1.436-3.207-3.206-3.207H19.97c-1.771,0-3.206,1.435-3.206,3.207v59.986c0,1.766,1.436,3.206,3.206,3.206h53.432
	c1.77,0,3.206-1.44,3.206-3.206v-1.67h4.586c1.128,0,2.042-0.894,2.042-1.996v-5.912c0-1.102-0.914-2-2.042-2h-4.586v-5.699h4.586
	c1.128,0,2.042-0.894,2.042-1.991v-5.912c0-1.102-0.914-2-2.042-2h-4.586v-5.699h4.586c1.128,0,2.042-0.897,2.042-1.996v-5.912
	c0-1.098-0.914-1.996-2.042-1.996h-4.586v-5.695H81.195z M62.391,63.681c0,1.152-0.804,2.088-1.795,2.088H32.75
	c-0.992,0-1.795-0.935-1.795-2.088v-8.604c0-0.856,0.447-1.625,1.127-1.941l10.9-5.077c-2.583-1.557-4.351-4.689-4.351-8.304
	c0-5.168,3.599-9.356,8.041-9.356c4.443,0,8.042,4.188,8.042,9.356c0,3.562-1.708,6.655-4.226,8.238l10.789,5.148
	c0.674,0.325,1.115,1.085,1.115,1.937V63.681z" /> </symbol>
  <symbol viewBox="0 0 100 100" id="fi-alert">
    <title>fi-alert</title>
    <g>
      <path d="M91.17,81.374l0.006-0.004l-0.139-0.24c-0.068-0.128-0.134-0.257-0.216-0.375l-37.69-65.283
		c-0.611-1.109-1.776-1.87-3.133-1.87c-1.47,0-2.731,0.887-3.285,2.153l-0.004-0.002L9.312,80.529l0.036,0.021
		c-0.505,0.618-0.82,1.397-0.82,2.257c0,1.982,1.607,3.59,3.588,3.59h0h75.767v0c1.982,0,3.589-1.607,3.589-3.589
		C91.472,82.297,91.362,81.814,91.17,81.374z M50.035,79.617c-2.874,0-5.201-2.257-5.201-5.13c0-2.874,2.326-5.2,5.201-5.2
		c2.803,0,5.13,2.325,5.13,5.2C55.166,77.36,52.838,79.617,50.035,79.617z M55.165,34.25v28.299h-0.002
		c0,0.005,0.002,0.01,0.002,0.016c0,1.173-0.95,2.094-2.094,2.094c-0.005,0-0.009-0.001-0.014-0.001v0.001h-6.093
		c-1.174,0-2.123-0.921-2.123-2.094c0-0.005,0.002-0.01,0.002-0.016h-0.002V34.326c-0.001-0.026-0.008-0.051-0.008-0.077
		c0-1.117,0.865-1.996,1.935-2.078v-0.016h6.288v0.001c1.149,0.007,2.074,0.897,2.103,2.039h0.005v0.053V34.25
		C55.166,34.25,55.165,34.25,55.165,34.25z" /> </g>
  </symbol>
  <symbol viewBox="0 0 100 100" id="fi-align-center">
    <title>fi-align-center</title>
    <g>
      <path d="M81.232,15.138H18.769c-1.882,0-3.407,1.525-3.407,3.407v3.143c0,1.881,1.525,3.407,3.407,3.407h62.463
		c1.881,0,3.407-1.525,3.407-3.407v-3.143C84.639,16.663,83.113,15.138,81.232,15.138z" />
      <path d="M76.224,41.611L76.224,41.611l0-3.143h0c0-1.882-1.525-3.407-3.407-3.407h0H27.183c-1.882,0-3.407,1.525-3.407,3.407v3.143
		c0,1.881,1.525,3.407,3.407,3.407h45.634h0C74.699,45.017,76.224,43.492,76.224,41.611z" />
      <path d="M77.81,74.905L77.81,74.905H22.176c-1.882,0-3.407,1.525-3.407,3.407v3.143c0,1.881,1.525,3.407,3.407,3.407H77.81h0
		c1.881,0,3.407-1.525,3.407-3.407h0.015v-3.143h-0.015C81.217,76.431,79.691,74.905,77.81,74.905z" />
      <path d="M72.817,58.39c0-1.882-1.525-3.407-3.407-3.407l0,0v0H30.59c-1.882,0-3.407,1.525-3.407,3.407v3.143
		c0,1.881,1.525,3.407,3.407,3.407h38.82v0l0,0c1.881,0,3.407-1.525,3.407-3.407c0,0,0-0.001,0-0.001v-3.141L72.817,58.39z" /> </g>
  </symbol>
  <symbol viewBox="0 0 100 100" id="fi-align-justify">
    <title>fi-align-justify</title>
    <g>
      <path d="M81.232,15.389H18.769c-1.882,0-3.407,1.525-3.407,3.407v3.143c0,1.881,1.525,3.407,3.407,3.407h62.463
		c1.881,0,3.407-1.525,3.407-3.407v-3.143C84.639,16.914,83.113,15.389,81.232,15.389z" />
      <path d="M81.232,35.144H18.769c-1.882,0-3.407,1.525-3.407,3.407v3.143c0,1.881,1.525,3.407,3.407,3.407h62.463
		c1.881,0,3.407-1.525,3.407-3.407v-3.143C84.639,36.67,83.113,35.144,81.232,35.144z" />
      <path d="M81.232,54.899H18.769c-1.882,0-3.407,1.525-3.407,3.407v3.143c0,1.881,1.525,3.407,3.407,3.407h62.463
		c1.881,0,3.407-1.525,3.407-3.407v-3.143C84.639,56.425,83.113,54.899,81.232,54.899z" />
      <path d="M81.232,74.654H18.769c-1.882,0-3.407,1.525-3.407,3.407v3.143c0,1.881,1.525,3.407,3.407,3.407h62.463
		c1.881,0,3.407-1.525,3.407-3.407v-3.143C84.639,76.18,83.113,74.654,81.232,74.654z" /> </g>
  </symbol>
  <symbol viewBox="0 0 100 100" id="fi-align-left">
    <title>fi-align-left</title>
    <g>
      <path d="M81.232,15.138H18.769c-1.882,0-3.407,1.525-3.407,3.407v3.143c0,1.881,1.525,3.407,3.407,3.407h62.463
		c1.881,0,3.407-1.525,3.407-3.407v-3.143C84.639,16.663,83.113,15.138,81.232,15.138z" />
      <path d="M18.769,45.008h45.634h0c1.881,0,3.407-1.525,3.407-3.407h0v-3.143h0c0-1.882-1.525-3.407-3.407-3.407h0H18.769
		c-1.882,0-3.407,1.525-3.407,3.407v3.143C15.361,43.483,16.887,45.008,18.769,45.008z" />
      <path d="M74.403,74.905L74.403,74.905H18.769c-1.882,0-3.407,1.525-3.407,3.407v3.143c0,1.881,1.525,3.407,3.407,3.407h55.634h0
		c1.881,0,3.407-1.525,3.407-3.407h0.015v-3.143H77.81C77.81,76.431,76.284,74.905,74.403,74.905z" />
      <path d="M18.769,64.94h38.82v0l0,0c1.881,0,3.407-1.525,3.407-3.407c0,0,0-0.001,0-0.001v-3.141l0-0.001
		c0-1.882-1.525-3.407-3.407-3.407l0,0v0h-38.82c-1.882,0-3.407,1.525-3.407,3.407v3.143C15.361,63.414,16.887,64.94,18.769,64.94z" /> </g>
  </symbol>
</svg>